<svg width="32" height="32" viewBox="0 0 32 32" fill="none" xmlns="http://www.w3.org/2000/svg">
<mask id="mask0_505_20" style="mask-type:alpha" maskUnits="userSpaceOnUse" x="0" y="0" width="32" height="32">
<rect width="32" height="32" rx="16" fill="#1877F2"/>
</mask>
<g mask="url(#mask0_505_20)">
<rect width="32" height="32" rx="16" fill="#1877F2"/>
<path d="M13.2856 12.2741C11.9357 13.0525 11.8948 13.8726 12.6656 15.1851L13.9442 17.3626L17.5449 15.2866L19.2499 19.0125L16.0115 20.8798L19.146 26.2179L22.2805 31.5559L17.9594 34.0474L11.6902 23.3713L8.77921 25.0497L6.71346 21.5318L9.62451 19.8534L8.381 17.7357C6.29729 14.1871 6.63608 11.4828 10.6523 9.1671C11.4927 8.67989 12.3628 8.24477 13.2576 7.86415L15.2018 11.1748L13.2856 12.2741Z" fill="white"/>
</g>
</svg>
