<svg width="1023" height="360" viewBox="0 0 1023 360" fill="none" xmlns="http://www.w3.org/2000/svg">
<path d="M95.1 131.83C87.7076 138.033 88.3215 143.105 94.3894 150.336L104.455 162.332L124.173 145.787L138.46 166.826L120.726 181.707L170.079 240.524L146.416 260.38L97.0625 201.563L81.1212 214.939L64.8586 195.558L80.8 182.182L71.0104 170.515C54.6064 150.965 53.8242 134.025 75.8174 115.57C80.4171 111.692 85.2518 108.102 90.294 104.82L105.599 123.059L95.1 131.83Z" fill="#1877F2"/>
<path d="M181.87 203.88C181.87 175.36 195.38 153.88 223.69 153.88C239.13 153.88 248.56 161.82 253.07 171.68V156.06H282.66V258.14H253.07V242.7C248.78 252.57 239.13 260.29 223.69 260.29C195.38 260.29 181.87 238.84 181.87 210.29V203.88ZM212.75 210.75C212.75 225.97 218.32 236.05 232.69 236.05C245.35 236.05 251.78 226.83 251.78 212.25V202C251.78 187.42 245.35 178.2 232.69 178.2C218.32 178.2 212.75 188.28 212.75 203.5V210.75Z" fill="#1877F2"/>
<path d="M347 153.91C359 153.91 370.37 156.49 376.59 160.77L369.73 182.65C363.296 179.586 356.266 177.975 349.14 177.93C332.41 177.93 325.14 187.58 325.14 204.1V210.1C325.14 226.62 332.43 236.27 349.14 236.27C356.266 236.225 363.296 234.614 369.73 231.55L376.59 253.42C370.37 257.71 359.01 260.29 347 260.29C310.75 260.29 294.24 240.77 294.24 209.46V204.74C294.24 173.43 310.75 153.91 347 153.91Z" fill="#1877F2"/>
<path d="M380.66 211V202C380.66 173.05 397.17 154 430.85 154C462.59 154 476.53 173.3 476.53 201.61V217.91H411.53C412.18 231.85 418.4 238.07 435.53 238.07C447.12 238.07 459.34 235.71 468.35 231.85L474 253C465.85 257.3 449.12 260.51 434.33 260.51C395.24 260.5 380.66 241 380.66 211ZM411.54 197.7H448.86V195.13C448.86 183.98 444.36 175.13 430.86 175.13C416.91 175.14 411.54 183.94 411.54 197.66V197.7Z" fill="#1877F2"/>
<path d="M591 210.32C591 238.84 577.28 260.32 549 260.32C533.56 260.32 522.84 252.6 518.55 242.73V258.17H489.39V104.8L520.27 102V170.2C524.77 161.2 534.64 153.9 549.01 153.9C577.32 153.9 591.01 175.35 591.01 203.9L591 210.32ZM560.12 203.24C560.12 188.87 554.55 178.15 539.75 178.15C527.09 178.15 520.23 187.15 520.23 201.74V212.46C520.23 227.04 527.09 236.05 539.75 236.05C554.55 236.05 560.12 225.33 560.12 210.96V203.24Z" fill="#1877F2"/>
<path d="M601.33 209.67V204.53C601.33 175.14 618.06 153.91 652.16 153.91C686.26 153.91 703 175.14 703 204.53V209.67C703 239.05 686.27 260.29 652.17 260.29C618.07 260.29 601.33 239.05 601.33 209.67ZM672.11 202.38C672.11 188.87 666.53 178.15 652.11 178.15C637.69 178.15 632.16 188.87 632.16 202.38V211.82C632.16 225.33 637.74 236.05 652.11 236.05C666.48 236.05 672.11 225.33 672.11 211.82V202.38Z" fill="#1877F2"/>
<path d="M713.27 209.67V204.53C713.27 175.14 730 153.91 764.1 153.91C798.2 153.91 814.93 175.14 814.93 204.53V209.67C814.93 239.05 798.2 260.29 764.1 260.29C730 260.29 713.27 239.05 713.27 209.67ZM784.05 202.38C784.05 188.87 778.47 178.15 764.1 178.15C749.73 178.15 744.16 188.87 744.16 202.38V211.82C744.16 225.33 749.73 236.05 764.1 236.05C778.47 236.05 784.05 225.33 784.05 211.82V202.38Z" fill="#1877F2"/>
<path d="M857.39 204.74L887.84 156.06H920.65L888.7 206.46L921.94 258.14H889.13L857.39 208.14V258.14H826.5V104.8L857.39 102V204.74Z" fill="#1877F2"/>
</svg>
